<svg xmlns="http://www.w3.org/2000/svg" xmlns:xlink="http://www.w3.org/1999/xlink" width="690" height="537.62"><rect width="690" height="537.62" rx="5" ry="5" class="a"/><svg y="0%" x="0%" viewBox="0 0 -690 537.62"><style>.frametitle{fill:grey;font-size:medium;}</style><text y="30" x="50%" class="frametitle" dominant-baseline="middle" text-anchor="middle">tldr repll demo</text><circle cx="20" cy="20" r="6" fill="#ff5f58"/><circle cx="40" cy="20" r="6" fill="#ffbd2e"/><circle cx="60" cy="20" r="6" fill="#18c132"/></svg><svg height="477.62" viewBox="0 0 65 47.762" width="650" x="15" xmlns="http://www.w3.org/2000/svg" xmlns:xlink="http://www.w3.org/1999/xlink" y="50"><style>@keyframes q{0%{transform:translateX(0)}1.9%{transform:translateX(-130px)}2.4%{transform:translateX(-260px)}4.8%{transform:translateX(-325px)}8.4%{transform:translateX(-520px)}8.8%{transform:translateX(-910px)}14.1%{transform:translateX(-1170px)}15.7%{transform:translateX(-1365px)}18.4%{transform:translateX(-1690px)}20.1%{transform:translateX(-1950px)}20.7%{transform:translateX(-2145px)}21.9%{transform:translateX(-2340px)}31.3%{transform:translateX(-2470px)}38.2%{transform:translateX(-2600px)}39.2%{transform:translateX(-2665px)}40%{transform:translateX(-2795px)}40.8%{transform:translateX(-2925px)}41.6%{transform:translateX(-3055px)}42.4%{transform:translateX(-3250px)}48.7%{transform:translateX(-3510px)}49.5%{transform:translateX(-3705px)}61.7%{transform:translateX(-3770px)}65.2%{transform:translateX(-3900px)}66.3%{transform:translateX(-4095px)}67.1%{transform:translateX(-4160px)}73.2%{transform:translateX(-4355px)}75.8%{transform:translateX(-4550px)}76.5%{transform:translateX(-4680px)}79%{transform:translateX(-4875px)}80.3%{transform:translateX(-5070px)}82.9%{transform:translateX(-5265px)}84.1%{transform:translateX(-5460px)}85.2%{transform:translateX(-5655px)}85.6%{transform:translateX(-5850px)}94.7%{transform:translateX(-6045px)}to{transform:translateX(-6175px)}}.a{fill:#282d35}.f{fill:#d290e4;white-space:pre}.g,.i,.j,.l,.m,.n{fill:#71bef2;white-space:pre}.i,.j,.l,.m,.n{fill:#a8cc8c}.j,.l,.m,.n{fill:#b9c0cb}.l,.m,.n{fill:#6f7783}.m,.n{fill:#dbab79}.n{fill:#66c2cd}</style><g font-family="Monaco,Consolas,Menlo,'Bitstream Vera Sans Mono','Powerline Symbols',monospace" font-size="1.67"><defs><symbol id="1"><text y="1.67" class="f">△</text></symbol><symbol id="2"><text y="1.67" class="g">~/repo/repll</text><text x="13.026" y="1.67" style="white-space:pre" fill="#6c6c6c">master</text></symbol><symbol id="3"><text y="1.67" class="f">△</text><text x="2.004" y="1.67" class="i">px</text><text x="5.01" y="1.67" class="j">node</text><text x="10.02" y="1.67" style="white-space:pre" fill="#b9c0cb" text-decoration="underline">TEST/tldr.js</text></symbol><symbol id="4"><text y="1.67" class="g">›</text></symbol><symbol id="5"><text y="1.67" class="g">›</text><text x="2.004" y="1.67" class="l">Type</text><text x="7.014" y="1.67" class="l">a</text><text x="9.018" y="1.67" class="l">command</text><text x="17.034" y="1.67" class="l">you</text><text x="21.042" y="1.67" class="l">wanna</text><text x="27.054" y="1.67" class="l">search</text><text x="34.068" y="1.67" class="l">on</text><text x="37.074" y="1.67" class="l">tldr</text></symbol><symbol id="6"><text y="1.67" class="g">›</text><text x="2.004" y="1.67" class="j">l</text></symbol><symbol id="7"><text y="1.67" class="g">›</text><text x="2.004" y="1.67" class="j">lo</text></symbol><symbol id="8"><text y="1.67" class="g">›</text><text x="2.004" y="1.67" class="j">lol</text></symbol><symbol id="9"><text y="1.67" class="g">›</text><text x="2.004" y="1.67" class="j">lolc</text></symbol><symbol id="10"><text y="1.67" class="g">›</text><text x="2.004" y="1.67" class="j">lolca</text></symbol><symbol id="11"><text y="1.67" class="g">›</text><text x="2.004" y="1.67" class="j">lolcat</text></symbol><symbol id="12"><text y="1.67" class="j">#</text><text x="2.004" y="1.67" class="j">lolcat</text></symbol><symbol id="13"><text y="1.67" class="j">&gt;</text><text x="2.004" y="1.67" class="j">Put</text><text x="6.012" y="1.67" class="j">a</text><text x="8.016" y="1.67" class="j">rainbow</text><text x="16.032" y="1.67" class="j">in</text><text x="19.038" y="1.67" class="j">everything</text><text x="30.06" y="1.67" class="j">you</text><text x="34.068" y="1.67" class="i">`cat`</text><text x="40.08" y="1.67" class="j">to</text><text x="43.086" y="1.67" class="j">the</text><text x="47.094" y="1.67" class="j">console.</text></symbol><symbol id="14"><text y="1.67" class="j">&gt;</text><text x="2.004" y="1.67" class="j">More</text><text x="7.014" y="1.67" class="j">information:</text><text x="20.04" y="1.67" class="j">&lt;https://github.com/busyloop/lolcat&gt;.</text></symbol><symbol id="15"><text y="1.67" class="m">-</text><text x="2.004" y="1.67" class="j">Print</text><text x="8.016" y="1.67" class="j">a</text><text x="10.02" y="1.67" class="j">file</text><text x="15.03" y="1.67" class="j">to</text><text x="18.036" y="1.67" class="j">the</text><text x="22.044" y="1.67" class="j">console</text><text x="30.06" y="1.67" class="j">in</text><text x="33.066" y="1.67" class="j">rainbow</text><text x="41.082" y="1.67" class="j">colors:</text></symbol><symbol id="16"><text y="1.67" class="i">`lolcat</text><text x="8.016" y="1.67" class="i">{{path/to/file}}`</text></symbol><symbol id="17"><text y="1.67" class="m">-</text><text x="2.004" y="1.67" class="j">Print</text><text x="8.016" y="1.67" class="j">the</text><text x="12.024" y="1.67" class="j">result</text><text x="19.038" y="1.67" class="j">of</text><text x="22.044" y="1.67" class="j">a</text><text x="24.048" y="1.67" class="j">text-producing</text><text x="39.078" y="1.67" class="j">command</text><text x="47.094" y="1.67" class="j">in</text><text x="50.1" y="1.67" class="j">rainbow</text><text x="58.116" y="1.67" class="j">colors:</text></symbol><symbol id="18"><text y="1.67" class="i">`{{fortune}}</text><text x="13.026" y="1.67" class="i">|</text><text x="15.03" y="1.67" class="i">lolcat`</text></symbol><symbol id="19"><text y="1.67" class="m">-</text><text x="2.004" y="1.67" class="j">Print</text><text x="8.016" y="1.67" class="j">a</text><text x="10.02" y="1.67" class="j">file</text><text x="15.03" y="1.67" class="j">to</text><text x="18.036" y="1.67" class="j">the</text><text x="22.044" y="1.67" class="j">console</text><text x="30.06" y="1.67" class="j">with</text><text x="35.07" y="1.67" class="j">animated</text><text x="44.088" y="1.67" class="j">rainbow</text><text x="52.104" y="1.67" class="j">colors:</text></symbol><symbol id="20"><text y="1.67" class="i">`lolcat</text><text x="8.016" y="1.67" class="i">-a</text><text x="11.022" y="1.67" class="i">{{path/to/file}}`</text></symbol><symbol id="21"><text y="1.67" class="m">-</text><text x="2.004" y="1.67" class="j">Print</text><text x="8.016" y="1.67" class="j">a</text><text x="10.02" y="1.67" class="j">file</text><text x="15.03" y="1.67" class="j">to</text><text x="18.036" y="1.67" class="j">the</text><text x="22.044" y="1.67" class="j">console</text><text x="30.06" y="1.67" class="j">with</text><text x="35.07" y="1.67" class="j">24-bit</text><text x="42.084" y="1.67" class="j">(truecolor)</text><text x="54.108" y="1.67" class="j">rainbow</text><text x="62.124" y="1.67" class="j">col</text></symbol><symbol id="22"><text y="1.67" class="j">ors:</text></symbol><symbol id="23"><text y="1.67" class="i">`lolcat</text><text x="8.016" y="1.67" class="i">-t</text><text x="11.022" y="1.67" class="i">{{path/to/file}}`</text></symbol><symbol id="24"><text y="1.67" class="g">›</text><text x="2.004" y="1.67" class="j">g</text></symbol><symbol id="25"><text y="1.67" class="g">›</text><text x="2.004" y="1.67" class="j">gh</text></symbol><symbol id="26"><text y="1.67" class="j">#</text><text x="2.004" y="1.67" class="j">gh</text></symbol><symbol id="27"><text y="1.67" class="j">&gt;</text><text x="2.004" y="1.67" class="j">Work</text><text x="7.014" y="1.67" class="j">seamlessly</text><text x="18.036" y="1.67" class="j">with</text><text x="23.046" y="1.67" class="j">GitHub</text><text x="30.06" y="1.67" class="j">from</text><text x="35.07" y="1.67" class="j">the</text><text x="39.078" y="1.67" class="j">command</text><text x="47.094" y="1.67" class="j">line.</text></symbol><symbol id="28"><text y="1.67" class="j">&gt;</text><text x="2.004" y="1.67" class="j">More</text><text x="7.014" y="1.67" class="j">information:</text><text x="20.04" y="1.67" class="j">&lt;https://cli.github.com/&gt;.</text></symbol><symbol id="29"><text y="1.67" class="m">-</text><text x="2.004" y="1.67" class="j">Clone</text><text x="8.016" y="1.67" class="j">a</text><text x="10.02" y="1.67" class="j">repository</text><text x="21.042" y="1.67" class="j">locally:</text></symbol><symbol id="30"><text y="1.67" class="i">`gh</text><text x="4.008" y="1.67" class="i">repo</text><text x="9.018" y="1.67" class="i">clone</text><text x="15.03" y="1.67" class="i">{{owner}}/{{repository}}`</text></symbol><symbol id="31"><text y="1.67" class="m">-</text><text x="2.004" y="1.67" class="j">Create</text><text x="9.018" y="1.67" class="j">a</text><text x="11.022" y="1.67" class="j">new</text><text x="15.03" y="1.67" class="j">issue:</text></symbol><symbol id="32"><text y="1.67" class="i">`gh</text><text x="4.008" y="1.67" class="i">issue</text><text x="10.02" y="1.67" class="i">create`</text></symbol><symbol id="33"><text y="1.67" class="m">-</text><text x="2.004" y="1.67" class="j">View</text><text x="7.014" y="1.67" class="j">and</text><text x="11.022" y="1.67" class="j">filter</text><text x="18.036" y="1.67" class="j">a</text><text x="20.04" y="1.67" class="j">repository’s</text><text x="33.066" y="1.67" class="j">open</text><text x="38.076" y="1.67" class="j">issues:</text></symbol><symbol id="34"><text y="1.67" class="i">`gh</text><text x="4.008" y="1.67" class="i">issue</text><text x="10.02" y="1.67" class="i">list`</text></symbol><symbol id="35"><text y="1.67" class="m">-</text><text x="2.004" y="1.67" class="j">View</text><text x="7.014" y="1.67" class="j">an</text><text x="10.02" y="1.67" class="j">issue</text><text x="16.032" y="1.67" class="j">in</text><text x="19.038" y="1.67" class="j">the</text><text x="23.046" y="1.67" class="j">browser:</text></symbol><symbol id="36"><text y="1.67" class="i">`gh</text><text x="4.008" y="1.67" class="i">issue</text><text x="10.02" y="1.67" class="i">view</text><text x="15.03" y="1.67" class="i">--web</text><text x="21.042" y="1.67" class="i">{{issue_number}}`</text></symbol><symbol id="37"><text y="1.67" class="m">-</text><text x="2.004" y="1.67" class="j">Create</text><text x="9.018" y="1.67" class="j">a</text><text x="11.022" y="1.67" class="j">pull</text><text x="16.032" y="1.67" class="j">request:</text></symbol><symbol id="38"><text y="1.67" class="i">`gh</text><text x="4.008" y="1.67" class="i">pr</text><text x="7.014" y="1.67" class="i">create`</text></symbol><symbol id="39"><text y="1.67" class="m">-</text><text x="2.004" y="1.67" class="j">View</text><text x="7.014" y="1.67" class="j">a</text><text x="9.018" y="1.67" class="j">pull</text><text x="14.028" y="1.67" class="j">request</text><text x="22.044" y="1.67" class="j">in</text><text x="25.05" y="1.67" class="j">the</text><text x="29.058" y="1.67" class="j">browser:</text></symbol><symbol id="40"><text y="1.67" class="i">`gh</text><text x="4.008" y="1.67" class="i">pr</text><text x="7.014" y="1.67" class="i">view</text><text x="12.024" y="1.67" class="i">--web</text><text x="18.036" y="1.67" class="i">{{pr_number}}`</text></symbol><symbol id="41"><text y="1.67" class="m">-</text><text x="2.004" y="1.67" class="j">Check</text><text x="8.016" y="1.67" class="j">out</text><text x="12.024" y="1.67" class="j">pull</text><text x="17.034" y="1.67" class="j">requests</text><text x="26.052" y="1.67" class="j">locally:</text></symbol><symbol id="42"><text y="1.67" class="i">`gh</text><text x="4.008" y="1.67" class="i">pr</text><text x="7.014" y="1.67" class="i">checkout</text><text x="16.032" y="1.67" class="i">{{pr_number}}`</text></symbol><symbol id="43"><text y="1.67" class="m">-</text><text x="2.004" y="1.67" class="j">Check</text><text x="8.016" y="1.67" class="j">the</text><text x="12.024" y="1.67" class="j">status</text><text x="19.038" y="1.67" class="j">of</text><text x="22.044" y="1.67" class="j">a</text><text x="24.048" y="1.67" class="j">repository&apos;s</text><text x="37.074" y="1.67" class="j">pull</text><text x="42.084" y="1.67" class="j">requests:</text></symbol><symbol id="44"><text y="1.67" class="i">`gh</text><text x="4.008" y="1.67" class="i">pr</text><text x="7.014" y="1.67" class="i">status`</text></symbol><symbol id="45"><text y="1.67" class="g">›</text><text x="2.004" y="1.67" class="j">s</text></symbol><symbol id="46"><text y="1.67" class="g">›</text><text x="2.004" y="1.67" class="j">aw</text></symbol><symbol id="47"><text y="1.67" class="g">›</text><text x="2.004" y="1.67" class="j">awe</text></symbol><symbol id="48"><text y="1.67" class="g">›</text><text x="2.004" y="1.67" class="j">awes</text></symbol><symbol id="49"><text y="1.67" class="g">›</text><text x="2.004" y="1.67" class="j">aweso</text></symbol><symbol id="50"><text y="1.67" class="g">›</text><text x="2.004" y="1.67" class="j">awesom</text></symbol><symbol id="51"><text y="1.67" class="g">›</text><text x="2.004" y="1.67" class="j">awesome</text></symbol><symbol id="52"><text y="1.67" class="n">command</text><text x="8.016" y="1.67" class="n">not</text><text x="12.024" y="1.67" class="n">found!</text></symbol><symbol id="a"><path fill="transparent" d="M0 0h65v23H0z"/></symbol><symbol id="b"><path fill="#6f7683" d="M0 0h1.102v2.171H0z"/></symbol></defs><path class="a" d="M0 0h65v47.762H0z"/><g style="animation-duration:14.939079s;animation-iteration-count:infinite;animation-name:q;animation-timing-function:steps(1,end)"><svg width="6240"><svg><use xlink:href="#a"/><use xlink:href="#b" x="-.004"/></svg><svg x="65"><use xlink:href="#a"/><use xlink:href="#b" x="-.004"/></svg><svg x="130"><use xlink:href="#a"/><use xlink:href="#b" x="-.004" y="2.146"/></svg><svg x="195"><use xlink:href="#a"/><use xlink:href="#b" x="1.996" y="4.317"/><text y="3.841" class="g">~/repo/repll</text><use xlink:href="#1" y="4.342"/></svg><svg x="260"><use xlink:href="#a"/><use xlink:href="#b" x="1.996" y="4.317"/><use xlink:href="#2" y="2.171"/><use xlink:href="#1" y="4.342"/></svg><svg x="325"><use xlink:href="#a"/><use xlink:href="#b" x="21.996" y="4.317"/><use xlink:href="#2" y="2.171"/><use xlink:href="#3" y="4.342"/></svg><svg x="390"><use xlink:href="#a"/><use xlink:href="#b" x="21.996" y="4.317"/><use xlink:href="#2" y="2.171"/><use xlink:href="#3" y="4.342"/></svg><svg x="455"><use xlink:href="#a"/><use xlink:href="#b" x="-.004" y="6.488"/><use xlink:href="#2" y="2.171"/><use xlink:href="#3" y="4.342"/></svg><svg x="520"><use xlink:href="#a"/><use xlink:href="#b" x="-.004" y="6.488"/><use xlink:href="#2" y="2.171"/><use xlink:href="#3" y="4.342"/></svg><svg x="585"><use xlink:href="#a"/><use xlink:href="#b" x="-.004" y="6.488"/></svg><svg x="650"><use xlink:href="#a"/><use xlink:href="#b" x="-.004"/></svg><svg x="715"><use xlink:href="#a"/><use xlink:href="#b" x="-.004"/></svg><svg x="780"><use xlink:href="#a"/><use xlink:href="#b" x="1.996" y="2.146"/><use xlink:href="#4" y="2.171"/></svg><svg x="845"><use xlink:href="#a"/><use xlink:href="#b" x="40.996" y="2.146"/><use xlink:href="#5" y="2.171"/></svg><svg x="910"><use xlink:href="#a"/><use xlink:href="#b" x="1.996" y="2.146"/><use xlink:href="#5" y="2.171"/></svg><svg x="975"><use xlink:href="#a"/><use xlink:href="#b" x="2.996" y="2.146"/><text y="3.841" class="g">›</text><text x="2.004" y="3.841" class="j">l</text><text x="3.006" y="3.841" class="l">ype</text><text x="7.014" y="3.841" class="l">a</text><text x="9.018" y="3.841" class="l">command</text><text x="17.034" y="3.841" class="l">you</text><text x="21.042" y="3.841" class="l">wanna</text><text x="27.054" y="3.841" class="l">search</text><text x="34.068" y="3.841" class="l">on</text><text x="37.074" y="3.841" class="l">tldr</text></svg><svg x="1040"><use xlink:href="#a"/><use xlink:href="#b" x="3.996" y="2.146"/><text y="3.841" class="g">›</text><text x="2.004" y="3.841" class="j">l</text><text x="4.008" y="3.841" class="l">pe</text><text x="7.014" y="3.841" class="l">a</text><text x="9.018" y="3.841" class="l">command</text><text x="17.034" y="3.841" class="l">you</text><text x="21.042" y="3.841" class="l">wanna</text><text x="27.054" y="3.841" class="l">search</text><text x="34.068" y="3.841" class="l">on</text><text x="37.074" y="3.841" class="l">tldr</text></svg><svg x="1105"><use xlink:href="#a"/><use xlink:href="#b" x="2.996" y="2.146"/><use xlink:href="#6" y="2.171"/></svg><svg x="1170"><use xlink:href="#a"/><use xlink:href="#b" x="2.996" y="2.146"/><use xlink:href="#6" y="2.171"/></svg><svg x="1235"><use xlink:href="#a"/><use xlink:href="#b" x="3.996" y="2.146"/><use xlink:href="#7" y="2.171"/></svg><svg x="1300"><use xlink:href="#a"/><use xlink:href="#b" x="4.996" y="2.146"/><use xlink:href="#7" y="2.171"/></svg><svg x="1365"><use xlink:href="#a"/><use xlink:href="#b" x="3.996" y="2.146"/><use xlink:href="#7" y="2.171"/></svg><svg x="1430"><use xlink:href="#a"/><use xlink:href="#b" x="4.996" y="2.146"/><use xlink:href="#8" y="2.171"/></svg><svg x="1495"><use xlink:href="#a"/><use xlink:href="#b" x="5.996" y="2.146"/><use xlink:href="#8" y="2.171"/></svg><svg x="1560"><use xlink:href="#a"/><use xlink:href="#b" x="5.996"/><use xlink:href="#8" y="2.171"/></svg><svg x="1625"><use xlink:href="#a"/><use xlink:href="#b" x="-.004"/></svg><svg x="1690"><use xlink:href="#a"/><use xlink:href="#b" x="4.996" y="2.146"/><use xlink:href="#8" y="2.171"/></svg><svg x="1755"><use xlink:href="#a"/><use xlink:href="#b" x="5.996" y="2.146"/><use xlink:href="#9" y="2.171"/></svg><svg x="1820"><use xlink:href="#a"/><use xlink:href="#b" x="6.996" y="2.146"/><use xlink:href="#9" y="2.171"/></svg><svg x="1885"><use xlink:href="#a"/><use xlink:href="#b" x="-.004"/><use xlink:href="#9" y="2.171"/></svg><svg x="1950"><use xlink:href="#a"/><use xlink:href="#b" x="5.996" y="2.146"/><use xlink:href="#9" y="2.171"/></svg><svg x="2015"><use xlink:href="#a"/><use xlink:href="#b" x="6.996" y="2.146"/><use xlink:href="#10" y="2.171"/></svg><svg x="2080"><use xlink:href="#a"/><use xlink:href="#b" x="7.996" y="2.146"/><use xlink:href="#10" y="2.171"/></svg><svg x="2145"><use xlink:href="#a"/><use xlink:href="#b" x="6.996" y="2.146"/><use xlink:href="#10" y="2.171"/></svg><svg x="2210"><use xlink:href="#a"/><use xlink:href="#b" x="7.996" y="2.146"/><use xlink:href="#11" y="2.171"/></svg><svg x="2275"><use xlink:href="#a"/><use xlink:href="#b" x="8.996"/><use xlink:href="#11" y="2.171"/></svg><svg x="2340"><use xlink:href="#a"/><use xlink:href="#b" x="7.996" y="2.146"/><use xlink:href="#11" y="2.171"/></svg><svg x="2405"><use xlink:href="#a"/><use xlink:href="#b" x="-.004" y="30.369"/><use xlink:href="#11" y="2.171"/><use xlink:href="#12" y="4.342"/><use xlink:href="#13" y="6.513"/><use xlink:href="#14" y="8.684"/><use xlink:href="#15" y="10.855"/><use xlink:href="#16" y="13.026"/><use xlink:href="#17" y="15.197"/><use xlink:href="#18" y="17.368"/><use xlink:href="#19" y="19.539"/><use xlink:href="#20" y="21.71"/><use xlink:href="#21" y="23.881"/><use xlink:href="#22" y="26.052"/><use xlink:href="#23" y="28.223"/></svg><svg x="2470"><use xlink:href="#a"/><use xlink:href="#b" x="7.996" y="2.146"/><use xlink:href="#11" y="2.171"/><use xlink:href="#12" y="4.342"/><use xlink:href="#13" y="6.513"/><use xlink:href="#14" y="8.684"/><use xlink:href="#15" y="10.855"/><use xlink:href="#16" y="13.026"/><use xlink:href="#17" y="15.197"/><use xlink:href="#18" y="17.368"/><use xlink:href="#19" y="19.539"/><use xlink:href="#20" y="21.71"/><use xlink:href="#21" y="23.881"/><use xlink:href="#22" y="26.052"/><use xlink:href="#23" y="28.223"/></svg><svg x="2535"><use xlink:href="#a"/><use xlink:href="#b" x="6.996" y="2.146"/><use xlink:href="#10" y="2.171"/></svg><svg x="2600"><use xlink:href="#a"/><use xlink:href="#b" x="6.996" y="2.146"/><use xlink:href="#10" y="2.171"/></svg><svg x="2665"><use xlink:href="#a"/><use xlink:href="#b" x="5.996" y="2.146"/><use xlink:href="#9" y="2.171"/></svg><svg x="2730"><use xlink:href="#a"/><use xlink:href="#b" x="5.996"/><use xlink:href="#9" y="2.171"/></svg><svg x="2795"><use xlink:href="#a"/><use xlink:href="#b" x="4.996" y="2.146"/><use xlink:href="#8" y="2.171"/></svg><svg x="2860"><use xlink:href="#a"/><use xlink:href="#b" x="4.996"/><use xlink:href="#8" y="2.171"/></svg><svg x="2925"><use xlink:href="#a"/><use xlink:href="#b" x="3.996" y="2.146"/><use xlink:href="#7" y="2.171"/></svg><svg x="2990"><use xlink:href="#a"/><use xlink:href="#b" x="2.996" y="2.146"/><use xlink:href="#6" y="2.171"/></svg><svg x="3055"><use xlink:href="#a"/><use xlink:href="#b" x="2.996" y="2.146"/><use xlink:href="#6" y="2.171"/></svg><svg x="3120"><use xlink:href="#a"/><use xlink:href="#b" x="1.996" y="2.146"/><use xlink:href="#4" y="2.171"/></svg><svg x="3185"><use xlink:href="#a"/><use xlink:href="#b" x="1.996" y="2.146"/><use xlink:href="#4" y="2.171"/></svg><svg x="3250"><use xlink:href="#a"/><use xlink:href="#b" x="1.996" y="2.146"/><use xlink:href="#5" y="2.171"/></svg><svg x="3315"><use xlink:href="#a"/><use xlink:href="#b" x="2.996" y="2.146"/><text y="3.841" class="g">›</text><text x="2.004" y="3.841" class="j">g</text><text x="3.006" y="3.841" class="l">ype</text><text x="7.014" y="3.841" class="l">a</text><text x="9.018" y="3.841" class="l">command</text><text x="17.034" y="3.841" class="l">you</text><text x="21.042" y="3.841" class="l">wanna</text><text x="27.054" y="3.841" class="l">search</text><text x="34.068" y="3.841" class="l">on</text><text x="37.074" y="3.841" class="l">tldr</text></svg><svg x="3380"><use xlink:href="#a"/><use xlink:href="#b" x="-.004"/></svg><svg x="3445"><use xlink:href="#a"/><use xlink:href="#b" x="2.996" y="2.146"/><use xlink:href="#24" y="2.171"/></svg><svg x="3510"><use xlink:href="#a"/><use xlink:href="#b" x="2.996" y="2.146"/><use xlink:href="#24" y="2.171"/></svg><svg x="3575"><use xlink:href="#a"/><use xlink:href="#b" x="3.996" y="2.146"/><use xlink:href="#25" y="2.171"/></svg><svg x="3640"><use xlink:href="#a"/><use xlink:href="#b" x="3.996" y="2.146"/><use xlink:href="#25" y="2.171"/></svg><svg x="3705"><use xlink:href="#a"/><use xlink:href="#b" x="3.996" y="2.146"/><use xlink:href="#25" y="2.171"/></svg><svg x="3770"><use xlink:href="#a"/><use xlink:href="#b" x="3.996" y="2.146"/><use xlink:href="#25" y="2.171"/><use xlink:href="#26" y="4.342"/><use xlink:href="#27" y="6.513"/><use xlink:href="#28" y="8.684"/><use xlink:href="#29" y="10.855"/><use xlink:href="#30" y="13.026"/><use xlink:href="#31" y="15.197"/><use xlink:href="#32" y="17.368"/><use xlink:href="#33" y="19.539"/><use xlink:href="#34" y="21.71"/><use xlink:href="#35" y="23.881"/><use xlink:href="#36" y="26.052"/><use xlink:href="#37" y="28.223"/><use xlink:href="#38" y="30.394"/><use xlink:href="#39" y="32.565"/><use xlink:href="#40" y="34.736"/><use xlink:href="#41" y="36.907"/><use xlink:href="#42" y="39.078"/><use xlink:href="#43" y="41.249"/><use xlink:href="#44" y="43.42"/></svg><svg x="3835"><use xlink:href="#a"/><use xlink:href="#b" x="3.996"/><use xlink:href="#25" y="2.171"/><use xlink:href="#26" y="4.342"/><use xlink:href="#27" y="6.513"/><use xlink:href="#28" y="8.684"/><use xlink:href="#29" y="10.855"/><use xlink:href="#30" y="13.026"/><use xlink:href="#31" y="15.197"/><use xlink:href="#32" y="17.368"/><use xlink:href="#33" y="19.539"/><use xlink:href="#34" y="21.71"/><use xlink:href="#35" y="23.881"/><use xlink:href="#36" y="26.052"/><use xlink:href="#37" y="28.223"/><use xlink:href="#38" y="30.394"/><use xlink:href="#39" y="32.565"/><use xlink:href="#40" y="34.736"/><use xlink:href="#41" y="36.907"/><use xlink:href="#42" y="39.078"/><use xlink:href="#43" y="41.249"/><use xlink:href="#44" y="43.42"/></svg><svg x="3900"><use xlink:href="#a"/><use xlink:href="#b" x="2.996" y="2.146"/><use xlink:href="#24" y="2.171"/></svg><svg x="3965"><use xlink:href="#a"/><use xlink:href="#b" x="1.996" y="2.146"/><use xlink:href="#4" y="2.171"/></svg><svg x="4030"><use xlink:href="#a"/><use xlink:href="#b" x="1.996" y="2.146"/><use xlink:href="#4" y="2.171"/></svg><svg x="4095"><use xlink:href="#a"/><use xlink:href="#b" x="1.996" y="2.146"/><use xlink:href="#5" y="2.171"/></svg><svg x="4160"><use xlink:href="#a"/><use xlink:href="#b" x="1.996" y="2.146"/><use xlink:href="#5" y="2.171"/></svg><svg x="4225"><use xlink:href="#a"/><use xlink:href="#b" x="2.996" y="2.146"/><text y="3.841" class="g">›</text><text x="2.004" y="3.841" class="j">s</text><text x="3.006" y="3.841" class="l">ype</text><text x="7.014" y="3.841" class="l">a</text><text x="9.018" y="3.841" class="l">command</text><text x="17.034" y="3.841" class="l">you</text><text x="21.042" y="3.841" class="l">wanna</text><text x="27.054" y="3.841" class="l">search</text><text x="34.068" y="3.841" class="l">on</text><text x="37.074" y="3.841" class="l">tldr</text></svg><svg x="4290"><use xlink:href="#a"/><use xlink:href="#b" x="3.996" y="2.146"/><text y="3.841" class="g">›</text><text x="2.004" y="3.841" class="j">s</text><text x="4.008" y="3.841" class="l">pe</text><text x="7.014" y="3.841" class="l">a</text><text x="9.018" y="3.841" class="l">command</text><text x="17.034" y="3.841" class="l">you</text><text x="21.042" y="3.841" class="l">wanna</text><text x="27.054" y="3.841" class="l">search</text><text x="34.068" y="3.841" class="l">on</text><text x="37.074" y="3.841" class="l">tldr</text></svg><svg x="4355"><use xlink:href="#a"/><use xlink:href="#b" x="2.996" y="2.146"/><use xlink:href="#45" y="2.171"/></svg><svg x="4420"><use xlink:href="#a"/><use xlink:href="#b" x="-.004"/><use xlink:href="#45" y="2.171"/></svg><svg x="4485"><use xlink:href="#a"/><use xlink:href="#b" x="1.996" y="2.146"/><use xlink:href="#4" y="2.171"/></svg><svg x="4550"><use xlink:href="#a"/><use xlink:href="#b" x="1.996" y="2.146"/><use xlink:href="#5" y="2.171"/></svg><svg x="4615"><use xlink:href="#a"/><use xlink:href="#b" x="2.996" y="2.146"/><text y="3.841" class="g">›</text><text x="2.004" y="3.841" class="j">a</text><text x="3.006" y="3.841" class="l">ype</text><text x="7.014" y="3.841" class="l">a</text><text x="9.018" y="3.841" class="l">command</text><text x="17.034" y="3.841" class="l">you</text><text x="21.042" y="3.841" class="l">wanna</text><text x="27.054" y="3.841" class="l">search</text><text x="34.068" y="3.841" class="l">on</text><text x="37.074" y="3.841" class="l">tldr</text></svg><svg x="4680"><use xlink:href="#a"/><use xlink:href="#b" x="2.996" y="2.146"/><text y="3.841" class="g">›</text><text x="2.004" y="3.841" class="j">a</text></svg><svg x="4745"><use xlink:href="#a"/><use xlink:href="#b" x="3.996" y="2.146"/><use xlink:href="#46" y="2.171"/></svg><svg x="4810"><use xlink:href="#a"/><use xlink:href="#b" x="-.004"/></svg><svg x="4875"><use xlink:href="#a"/><use xlink:href="#b" x="3.996" y="2.146"/><use xlink:href="#46" y="2.171"/></svg><svg x="4940"><use xlink:href="#a"/><use xlink:href="#b" x="4.996" y="2.146"/><use xlink:href="#47" y="2.171"/></svg><svg x="5005"><use xlink:href="#a"/><use xlink:href="#b" x="5.996" y="2.146"/><use xlink:href="#47" y="2.171"/></svg><svg x="5070"><use xlink:href="#a"/><use xlink:href="#b" x="4.996" y="2.146"/><use xlink:href="#47" y="2.171"/></svg><svg x="5135"><use xlink:href="#a"/><use xlink:href="#b" x="5.996" y="2.146"/><use xlink:href="#48" y="2.171"/></svg><svg x="5200"><use xlink:href="#a"/><use xlink:href="#b" x="6.996" y="2.146"/><use xlink:href="#48" y="2.171"/></svg><svg x="5265"><use xlink:href="#a"/><use xlink:href="#b" x="5.996" y="2.146"/><use xlink:href="#48" y="2.171"/></svg><svg x="5330"><use xlink:href="#a"/><use xlink:href="#b" x="6.996" y="2.146"/><use xlink:href="#49" y="2.171"/></svg><svg x="5395"><use xlink:href="#a"/><use xlink:href="#b" x="7.996" y="2.146"/><use xlink:href="#49" y="2.171"/></svg><svg x="5460"><use xlink:href="#a"/><use xlink:href="#b" x="6.996" y="2.146"/><use xlink:href="#49" y="2.171"/></svg><svg x="5525"><use xlink:href="#a"/><use xlink:href="#b" x="7.996" y="2.146"/><use xlink:href="#50" y="2.171"/></svg><svg x="5590"><use xlink:href="#a"/><use xlink:href="#b" x="8.996" y="2.146"/><use xlink:href="#50" y="2.171"/></svg><svg x="5655"><use xlink:href="#a"/><use xlink:href="#b" x="7.996" y="2.146"/><use xlink:href="#50" y="2.171"/></svg><svg x="5720"><use xlink:href="#a"/><use xlink:href="#b" x="8.996" y="2.146"/><use xlink:href="#51" y="2.171"/></svg><svg x="5785"><use xlink:href="#a"/><use xlink:href="#b" x="9.996" y="2.146"/><use xlink:href="#51" y="2.171"/></svg><svg x="5850"><use xlink:href="#a"/><use xlink:href="#b" x="8.996" y="2.146"/><use xlink:href="#51" y="2.171"/></svg><svg x="5915"><use xlink:href="#a"/><use xlink:href="#b" x="17.996" y="6.488"/><use xlink:href="#51" y="2.171"/><use xlink:href="#52" y="6.513"/></svg><svg x="5980"><use xlink:href="#a"/><use xlink:href="#b" x="-.004" y="8.659"/><use xlink:href="#51" y="2.171"/><use xlink:href="#52" y="6.513"/></svg><svg x="6045"><use xlink:href="#a"/><use xlink:href="#b" x="8.996" y="2.146"/><use xlink:href="#51" y="2.171"/><use xlink:href="#52" y="6.513"/></svg><svg x="6110"><use xlink:href="#a"/><use xlink:href="#b" x="7.996" y="2.146"/><use xlink:href="#50" y="2.171"/></svg><svg x="6175"><use xlink:href="#a"/><use xlink:href="#b" x="7.996" y="2.146"/><use xlink:href="#50" y="2.171"/></svg></svg></g></g></svg></svg>